<?xml version="1.0" ?><svg fill="none" height="14" viewBox="0 0 14 14" width="14" xmlns="http://www.w3.org/2000/svg"><g clip-path="url(#clip0_2_915)"><path d="M14 7.423C14 7.318 14 7.215 13.995 7.11C13.997 6.87397 13.987 6.638 13.965 6.403C13.8833 5.1757 13.4656 3.99451 12.7577 2.98866C12.0497 1.98281 11.0787 1.19105 9.951 0.699998C8.78629 0.121951 7.47927 -0.106965 6.18744 0.0408304C4.8956 0.188626 3.67406 0.706828 2.67 1.533C1.8637 2.13064 1.20475 2.90476 0.743543 3.79615C0.282335 4.68754 0.0310828 5.6726 0.00900117 6.676C-0.0753991 8.15917 0.321136 9.62998 1.13964 10.8697C1.95815 12.1095 3.15492 13.0519 4.552 13.557C4.76063 13.6317 4.9729 13.6958 5.188 13.749C5.288 13.775 5.378 13.8 5.471 13.828L5.645 13.882L6.586 14C6.686 14 6.798 14 6.904 14C7.15007 14.0015 7.39606 13.9905 7.641 13.967C8.04235 13.9202 8.44044 13.8487 8.833 13.753C8.96929 13.7226 9.09797 13.6648 9.21126 13.5831C9.32454 13.5015 9.42005 13.3977 9.492 13.278C9.59482 13.1003 9.64174 12.8957 9.62664 12.691C9.61154 12.4862 9.53512 12.2908 9.40734 12.1301C9.27956 11.9694 9.10634 11.8509 8.91025 11.7901C8.71417 11.7292 8.5043 11.7288 8.308 11.789C7.06885 12.1265 5.74716 11.9715 4.61976 11.3564C3.49237 10.7412 2.64674 9.71369 2.26 8.489C2.03899 7.77293 1.98319 7.01608 2.09677 6.27534C2.21036 5.5346 2.49038 4.82924 2.9158 4.2123C3.34121 3.59535 3.90094 3.08287 4.55292 2.71338C5.20489 2.34388 5.93214 2.12699 6.68 2.079C7.46073 2.02747 8.24253 2.16202 8.96112 2.47157C9.67971 2.78113 10.3145 3.25684 10.8134 3.85959C11.3123 4.46235 11.661 5.17492 11.8307 5.9387C12.0005 6.70249 11.9866 7.49566 11.79 8.253C11.7563 8.40938 11.6845 8.55502 11.581 8.677C11.4764 8.77141 11.3454 8.83159 11.2057 8.84946C11.0659 8.86734 10.924 8.84205 10.799 8.777C10.5523 8.639 10.358 8.42355 10.246 8.164C9.789 7.224 10.125 5.818 10.178 4.8C10.1905 4.55075 10.1036 4.30671 9.93638 4.12147C9.76914 3.93623 9.53523 3.82493 9.286 3.812C9.12392 3.80421 8.96265 3.8392 8.81837 3.91345C8.67409 3.98769 8.55188 4.09859 8.464 4.235C7.70793 3.77258 6.80095 3.62435 5.937 3.822C5.42433 3.93894 4.94647 4.17516 4.54225 4.51149C4.13803 4.84782 3.81885 5.27475 3.61064 5.75762C3.40244 6.24048 3.31107 6.76565 3.34397 7.29046C3.37687 7.81527 3.53312 8.32492 3.8 8.778C4.08159 9.27094 4.48642 9.68228 4.9748 9.9717C5.46319 10.2611 6.01839 10.4187 6.586 10.429C7.35709 10.4464 8.11206 10.2069 8.732 9.748C9.06598 10.1395 9.49082 10.4433 9.96936 10.6326C10.4479 10.8219 10.9655 10.8911 11.477 10.834C11.9912 10.7617 12.4745 10.5455 12.8712 10.2104C13.2679 9.87529 13.5618 9.4349 13.719 8.94C13.764 8.817 13.797 8.69 13.83 8.562L13.881 8.362L14 7.423ZM8.01 7.15C7.99414 7.45401 7.87337 7.74312 7.66826 7.96808C7.46315 8.19304 7.18639 8.33993 6.88513 8.38373C6.58387 8.42753 6.27674 8.36553 6.01607 8.20829C5.75539 8.05106 5.55729 7.80831 5.45551 7.5214C5.35374 7.23449 5.35458 6.92116 5.45789 6.6348C5.56121 6.34844 5.76061 6.10676 6.02212 5.95092C6.28364 5.79509 6.5911 5.73474 6.89212 5.78015C7.19314 5.82557 7.4691 5.97394 7.673 6.2C7.78931 6.32812 7.879 6.47809 7.93685 6.64117C7.9947 6.80426 8.01957 6.97722 8.01 7.15Z" fill="#444A58"/></g><defs><clipPath id="clip0_2_915"><rect fill="white" height="14" width="14"/></clipPath></defs></svg>