<?xml version="1.0" ?><svg fill="none" height="14" viewBox="0 0 14 14" width="14" xmlns="http://www.w3.org/2000/svg"><g clip-path="url(#clip0_2_961)"><path d="M13.584 12.494C13.584 12.494 10.396 17.044 3.684 10.327C-3.067 3.56202 1.524 0.417015 1.524 0.417015C1.66779 0.272668 1.84097 0.160978 2.03178 0.0895394C2.22259 0.0181005 2.42654 -0.0114115 2.62977 0.00301013C2.833 0.0174317 3.03074 0.0754488 3.20955 0.173116C3.38836 0.270783 3.54404 0.40581 3.666 0.569015L4.958 2.30001C5.16334 2.5741 5.26302 2.91301 5.23878 3.25463C5.21454 3.59624 5.06799 3.91768 4.826 4.16002L3.688 5.30002C3.688 5.30002 3.688 6.30602 5.698 8.31902C7.708 10.332 8.713 10.332 8.713 10.332L9.851 9.19202C10.0928 8.9498 10.4139 8.80306 10.7553 8.77881C11.0967 8.75455 11.4354 8.85441 11.709 9.06002L13.431 10.354C13.5931 10.4765 13.7271 10.6323 13.8241 10.8108C13.9211 10.9894 13.9788 11.1866 13.9932 11.3893C14.0077 11.592 13.9787 11.7954 13.9081 11.9859C13.8375 12.1765 13.727 12.3497 13.584 12.494Z" fill="#444A58"/></g><defs><clipPath id="clip0_2_961"><rect fill="white" height="14" width="14"/></clipPath></defs></svg>